<mxfile host="app.diagrams.net" agent="Mozilla/5.0 (X11; Linux x86_64) AppleWebKit/537.36 (KHTML, like Gecko) Chrome/127.0.0.0 Safari/537.36" version="25.0.3">
  <diagram name="Page-1" id="2c4490ee-f0b8-94ab-5012-d5dc3445f7a3">
    <mxGraphModel dx="3959.5" dy="1175" grid="1" gridSize="10" guides="1" tooltips="1" connect="0" arrows="1" fold="1" page="1" pageScale="1.5" pageWidth="1169" pageHeight="826" background="none" math="0" shadow="0">
      <root>
        <mxCell id="0" style=";html=1;" />
        <mxCell id="1" style=";html=1;" parent="0" />
        <mxCell id="GEBhnr7vl-1R8G4FgWjN-61" value="1" style="strokeColor=#DEEDFF;fillColor=#ADC3D9" vertex="1" parent="1">
          <mxGeometry x="-639.5" y="430" width="40" height="20" as="geometry" />
        </mxCell>
        <mxCell id="GEBhnr7vl-1R8G4FgWjN-65" value="2" style="strokeColor=#DEEDFF;fillColor=#CCE5FF" vertex="1" parent="1">
          <mxGeometry x="-639.4999999999998" y="449.9999999999999" width="40" height="20" as="geometry" />
        </mxCell>
        <mxCell id="GEBhnr7vl-1R8G4FgWjN-69" value="3" style="strokeColor=#DEEDFF" vertex="1" parent="1">
          <mxGeometry x="-639.4999999999998" y="469.9999999999998" width="40" height="20" as="geometry" />
        </mxCell>
        <mxCell id="GEBhnr7vl-1R8G4FgWjN-70" value="Cryptography" style="align=center;strokeColor=#DEEDFF" vertex="1" parent="1">
          <mxGeometry x="-599.5" y="431" width="200" height="80" as="geometry" />
        </mxCell>
        <mxCell id="GEBhnr7vl-1R8G4FgWjN-73" value="4" style="strokeColor=#DEEDFF" vertex="1" parent="1">
          <mxGeometry x="-639.5" y="490.0000000000002" width="40" height="20" as="geometry" />
        </mxCell>
        <mxCell id="GEBhnr7vl-1R8G4FgWjN-77" value="5" style="strokeColor=#DEEDFF" vertex="1" parent="1">
          <mxGeometry x="-639.5000000000001" y="510.0000000000002" width="40" height="20" as="geometry" />
        </mxCell>
        <mxCell id="GEBhnr7vl-1R8G4FgWjN-78" value="Material ordering" style="align=left;strokeColor=#DEEDFF" vertex="1" parent="1">
          <mxGeometry x="-599.5" y="510" width="200" height="20" as="geometry" />
        </mxCell>
        <mxCell id="GEBhnr7vl-1R8G4FgWjN-81" value="6" style="strokeColor=#DEEDFF" vertex="1" parent="1">
          <mxGeometry x="-639.5000000000001" y="530.0000000000005" width="40" height="20" as="geometry" />
        </mxCell>
        <mxCell id="GEBhnr7vl-1R8G4FgWjN-82" value="Equipment layouting" style="align=left;strokeColor=#DEEDFF" vertex="1" parent="1">
          <mxGeometry x="-599.5" y="530" width="200" height="20" as="geometry" />
        </mxCell>
        <mxCell id="GEBhnr7vl-1R8G4FgWjN-85" value="7" style="strokeColor=#DEEDFF" vertex="1" parent="1">
          <mxGeometry x="-639.4999999999993" y="550.0000000000007" width="40" height="20" as="geometry" />
        </mxCell>
        <mxCell id="GEBhnr7vl-1R8G4FgWjN-86" value="Supervision and meetings" style="align=left;strokeColor=#DEEDFF" vertex="1" parent="1">
          <mxGeometry x="-599.5" y="550" width="200" height="20" as="geometry" />
        </mxCell>
        <mxCell id="GEBhnr7vl-1R8G4FgWjN-89" value="8" style="strokeColor=#DEEDFF" vertex="1" parent="1">
          <mxGeometry x="-639.4999999999993" y="570.0000000000006" width="40" height="20" as="geometry" />
        </mxCell>
        <mxCell id="GEBhnr7vl-1R8G4FgWjN-90" value="Bill of works" style="align=left;strokeColor=#DEEDFF" vertex="1" parent="1">
          <mxGeometry x="-599.5" y="570" width="200" height="20" as="geometry" />
        </mxCell>
        <mxCell id="GEBhnr7vl-1R8G4FgWjN-93" value="9" style="strokeColor=#DEEDFF;fillColor=#CCE5FF" vertex="1" parent="1">
          <mxGeometry x="-639.4999999999997" y="590.000000000001" width="40" height="20" as="geometry" />
        </mxCell>
        <mxCell id="GEBhnr7vl-1R8G4FgWjN-94" value="Workshop" style="align=left;strokeColor=#DEEDFF;fillColor=#CCE5FF" vertex="1" parent="1">
          <mxGeometry x="-599.5" y="590" width="200" height="20" as="geometry" />
        </mxCell>
        <mxCell id="GEBhnr7vl-1R8G4FgWjN-97" value="10" style="strokeColor=#DEEDFF" vertex="1" parent="1">
          <mxGeometry x="-639.4999999999998" y="610.000000000001" width="40" height="20" as="geometry" />
        </mxCell>
        <mxCell id="GEBhnr7vl-1R8G4FgWjN-98" value="" style="align=left;strokeColor=#DEEDFF" vertex="1" parent="1">
          <mxGeometry x="-599.5" y="610" width="200" height="20" as="geometry" />
        </mxCell>
        <mxCell id="GEBhnr7vl-1R8G4FgWjN-101" value="11" style="strokeColor=#DEEDFF" vertex="1" parent="1">
          <mxGeometry x="-639.4999999999998" y="630.0000000000013" width="40" height="20" as="geometry" />
        </mxCell>
        <mxCell id="GEBhnr7vl-1R8G4FgWjN-102" value="Preparing distribution boards" style="align=left;strokeColor=#DEEDFF" vertex="1" parent="1">
          <mxGeometry x="-599.5" y="630" width="200" height="20" as="geometry" />
        </mxCell>
        <mxCell id="GEBhnr7vl-1R8G4FgWjN-105" value="12" style="strokeColor=#DEEDFF" vertex="1" parent="1">
          <mxGeometry x="-639.5" y="650.0000000000016" width="40" height="20" as="geometry" />
        </mxCell>
        <mxCell id="GEBhnr7vl-1R8G4FgWjN-106" value="Mounting equipment" style="align=left;strokeColor=#DEEDFF" vertex="1" parent="1">
          <mxGeometry x="-599.5" y="650" width="200" height="20" as="geometry" />
        </mxCell>
        <mxCell id="GEBhnr7vl-1R8G4FgWjN-149" value="Module Name" style="fillColor=#23445D;strokeColor=#FFFFFF;strokeWidth=2;fontColor=#FFFFFF;fontStyle=1" vertex="1" parent="1">
          <mxGeometry x="-599.5" y="390" width="200" height="40" as="geometry" />
        </mxCell>
        <mxCell id="GEBhnr7vl-1R8G4FgWjN-150" value="" style="fillColor=#23445D;strokeColor=#FFFFFF;strokeWidth=2;fontColor=#FFFFFF;fontStyle=1" vertex="1" parent="1">
          <mxGeometry x="-639.5" y="390" width="40" height="40" as="geometry" />
        </mxCell>
        <mxCell id="GEBhnr7vl-1R8G4FgWjN-168" value="35 days" style="strokeColor=#DEEDFF;fillColor=#ADC3D9" vertex="1" parent="1">
          <mxGeometry x="-199.49999999999824" y="430" width="80.00000000000028" height="20" as="geometry" />
        </mxCell>
        <mxCell id="GEBhnr7vl-1R8G4FgWjN-170" value="35 days" style="strokeColor=#DEEDFF;fillColor=#CCE5FF" vertex="1" parent="1">
          <mxGeometry x="-199.499999999998" y="449.9999999999998" width="80.00000000000028" height="20" as="geometry" />
        </mxCell>
        <mxCell id="GEBhnr7vl-1R8G4FgWjN-172" value="1 day" style="strokeColor=#DEEDFF" vertex="1" parent="1">
          <mxGeometry x="-199.499999999998" y="469.9999999999998" width="80.00000000000028" height="20" as="geometry" />
        </mxCell>
        <mxCell id="GEBhnr7vl-1R8G4FgWjN-174" value="2 days" style="strokeColor=#DEEDFF" vertex="1" parent="1">
          <mxGeometry x="-199.4999999999983" y="490.0000000000001" width="80.00000000000028" height="20" as="geometry" />
        </mxCell>
        <mxCell id="GEBhnr7vl-1R8G4FgWjN-176" value="1 day" style="strokeColor=#DEEDFF" vertex="1" parent="1">
          <mxGeometry x="-199.49999999999835" y="510.0000000000001" width="80.00000000000028" height="20" as="geometry" />
        </mxCell>
        <mxCell id="GEBhnr7vl-1R8G4FgWjN-178" value="3 days" style="strokeColor=#DEEDFF" vertex="1" parent="1">
          <mxGeometry x="-199.49999999999835" y="530.0000000000003" width="80.00000000000028" height="20" as="geometry" />
        </mxCell>
        <mxCell id="GEBhnr7vl-1R8G4FgWjN-180" value="27 days" style="strokeColor=#DEEDFF" vertex="1" parent="1">
          <mxGeometry x="-199.4999999999976" y="550.0000000000007" width="80.00000000000028" height="20" as="geometry" />
        </mxCell>
        <mxCell id="GEBhnr7vl-1R8G4FgWjN-182" value="1 day" style="strokeColor=#DEEDFF" vertex="1" parent="1">
          <mxGeometry x="-199.4999999999976" y="570.0000000000006" width="80.00000000000028" height="20" as="geometry" />
        </mxCell>
        <mxCell id="GEBhnr7vl-1R8G4FgWjN-184" value="20 days" style="strokeColor=#DEEDFF;fillColor=#CCE5FF" vertex="1" parent="1">
          <mxGeometry x="-199.4999999999979" y="590.0000000000009" width="80.00000000000028" height="20" as="geometry" />
        </mxCell>
        <mxCell id="GEBhnr7vl-1R8G4FgWjN-186" value="2 days" style="strokeColor=#DEEDFF" vertex="1" parent="1">
          <mxGeometry x="-199.49999999999795" y="610.0000000000009" width="80.00000000000028" height="20" as="geometry" />
        </mxCell>
        <mxCell id="GEBhnr7vl-1R8G4FgWjN-188" value="2 days" style="strokeColor=#DEEDFF" vertex="1" parent="1">
          <mxGeometry x="-199.49999999999795" y="630.0000000000011" width="80.00000000000028" height="20" as="geometry" />
        </mxCell>
        <mxCell id="GEBhnr7vl-1R8G4FgWjN-190" value="3 days" style="strokeColor=#DEEDFF" vertex="1" parent="1">
          <mxGeometry x="-199.4999999999983" y="650.0000000000015" width="80.00000000000028" height="20" as="geometry" />
        </mxCell>
        <mxCell id="GEBhnr7vl-1R8G4FgWjN-192" value="WCET" style="fillColor=#23445D;strokeColor=#FFFFFF;strokeWidth=2;fontColor=#FFFFFF;fontStyle=1" vertex="1" parent="1">
          <mxGeometry x="-199.49999999999824" y="390.00000000000006" width="80.00000000000006" height="40.00000000000001" as="geometry" />
        </mxCell>
        <mxCell id="GEBhnr7vl-1R8G4FgWjN-195" value="Material ordering" style="align=left;strokeColor=#DEEDFF" vertex="1" parent="1">
          <mxGeometry x="-399.5" y="510" width="200" height="20" as="geometry" />
        </mxCell>
        <mxCell id="GEBhnr7vl-1R8G4FgWjN-196" value="Equipment layouting" style="align=left;strokeColor=#DEEDFF" vertex="1" parent="1">
          <mxGeometry x="-399.5" y="530" width="200" height="20" as="geometry" />
        </mxCell>
        <mxCell id="GEBhnr7vl-1R8G4FgWjN-197" value="Supervision and meetings" style="align=left;strokeColor=#DEEDFF" vertex="1" parent="1">
          <mxGeometry x="-399.5" y="550" width="200" height="20" as="geometry" />
        </mxCell>
        <mxCell id="GEBhnr7vl-1R8G4FgWjN-198" value="Bill of works" style="align=left;strokeColor=#DEEDFF" vertex="1" parent="1">
          <mxGeometry x="-399.5" y="570" width="200" height="20" as="geometry" />
        </mxCell>
        <mxCell id="GEBhnr7vl-1R8G4FgWjN-199" value="Workshop" style="align=left;strokeColor=#DEEDFF;fillColor=#CCE5FF" vertex="1" parent="1">
          <mxGeometry x="-399.5" y="590" width="200" height="20" as="geometry" />
        </mxCell>
        <mxCell id="GEBhnr7vl-1R8G4FgWjN-200" value="" style="align=left;strokeColor=#DEEDFF" vertex="1" parent="1">
          <mxGeometry x="-399.5" y="610" width="200" height="20" as="geometry" />
        </mxCell>
        <mxCell id="GEBhnr7vl-1R8G4FgWjN-201" value="Preparing distribution boards" style="align=left;strokeColor=#DEEDFF" vertex="1" parent="1">
          <mxGeometry x="-399.5" y="630" width="200" height="20" as="geometry" />
        </mxCell>
        <mxCell id="GEBhnr7vl-1R8G4FgWjN-202" value="Mounting equipment" style="align=left;strokeColor=#DEEDFF" vertex="1" parent="1">
          <mxGeometry x="-399.5" y="650" width="200" height="20" as="geometry" />
        </mxCell>
        <mxCell id="GEBhnr7vl-1R8G4FgWjN-203" value="Version Name" style="fillColor=#23445D;strokeColor=#FFFFFF;strokeWidth=2;fontColor=#FFFFFF;fontStyle=1" vertex="1" parent="1">
          <mxGeometry x="-399.5" y="390" width="200" height="40" as="geometry" />
        </mxCell>
        <mxCell id="GEBhnr7vl-1R8G4FgWjN-204" value="Material ordering" style="align=left;strokeColor=#DEEDFF" vertex="1" parent="1">
          <mxGeometry x="-399.5" y="471" width="200" height="20" as="geometry" />
        </mxCell>
        <mxCell id="GEBhnr7vl-1R8G4FgWjN-205" value="Material ordering" style="align=left;strokeColor=#DEEDFF" vertex="1" parent="1">
          <mxGeometry x="-399.5" y="451" width="200" height="20" as="geometry" />
        </mxCell>
        <mxCell id="GEBhnr7vl-1R8G4FgWjN-206" value="Material ordering" style="align=left;strokeColor=#DEEDFF" vertex="1" parent="1">
          <mxGeometry x="-399.5" y="431" width="200" height="20" as="geometry" />
        </mxCell>
        <mxCell id="GEBhnr7vl-1R8G4FgWjN-207" value="Material ordering" style="align=left;strokeColor=#DEEDFF" vertex="1" parent="1">
          <mxGeometry x="-399.5" y="490" width="200" height="20" as="geometry" />
        </mxCell>
        <mxCell id="GEBhnr7vl-1R8G4FgWjN-209" value="35 days" style="strokeColor=#DEEDFF;fillColor=#ADC3D9" vertex="1" parent="1">
          <mxGeometry x="-119.49999999999824" y="430" width="119" height="20" as="geometry" />
        </mxCell>
        <mxCell id="GEBhnr7vl-1R8G4FgWjN-210" value="35 days" style="strokeColor=#DEEDFF;fillColor=#CCE5FF" vertex="1" parent="1">
          <mxGeometry x="-119.49999999999801" y="449.9999999999998" width="119" height="20" as="geometry" />
        </mxCell>
        <mxCell id="GEBhnr7vl-1R8G4FgWjN-211" value="1 day" style="strokeColor=#DEEDFF" vertex="1" parent="1">
          <mxGeometry x="-119.49999999999801" y="469.9999999999998" width="119" height="20" as="geometry" />
        </mxCell>
        <mxCell id="GEBhnr7vl-1R8G4FgWjN-212" value="2 days" style="strokeColor=#DEEDFF" vertex="1" parent="1">
          <mxGeometry x="-119.4999999999983" y="490.0000000000001" width="119" height="20" as="geometry" />
        </mxCell>
        <mxCell id="GEBhnr7vl-1R8G4FgWjN-213" value="1 day" style="strokeColor=#DEEDFF" vertex="1" parent="1">
          <mxGeometry x="-119.49999999999835" y="510.0000000000001" width="119" height="20" as="geometry" />
        </mxCell>
        <mxCell id="GEBhnr7vl-1R8G4FgWjN-214" value="3 days" style="strokeColor=#DEEDFF" vertex="1" parent="1">
          <mxGeometry x="-119.49999999999835" y="530.0000000000003" width="119" height="20" as="geometry" />
        </mxCell>
        <mxCell id="GEBhnr7vl-1R8G4FgWjN-215" value="27 days" style="strokeColor=#DEEDFF" vertex="1" parent="1">
          <mxGeometry x="-119.49999999999761" y="550.0000000000007" width="119" height="20" as="geometry" />
        </mxCell>
        <mxCell id="GEBhnr7vl-1R8G4FgWjN-216" value="1 day" style="strokeColor=#DEEDFF" vertex="1" parent="1">
          <mxGeometry x="-119.49999999999761" y="570.0000000000006" width="119" height="20" as="geometry" />
        </mxCell>
        <mxCell id="GEBhnr7vl-1R8G4FgWjN-217" value="20 days" style="strokeColor=#DEEDFF;fillColor=#CCE5FF" vertex="1" parent="1">
          <mxGeometry x="-119.4999999999979" y="590.0000000000009" width="119" height="20" as="geometry" />
        </mxCell>
        <mxCell id="GEBhnr7vl-1R8G4FgWjN-218" value="2 days" style="strokeColor=#DEEDFF" vertex="1" parent="1">
          <mxGeometry x="-119.49999999999795" y="610.0000000000009" width="119" height="20" as="geometry" />
        </mxCell>
        <mxCell id="GEBhnr7vl-1R8G4FgWjN-219" value="2 days" style="strokeColor=#DEEDFF" vertex="1" parent="1">
          <mxGeometry x="-119.49999999999795" y="630.0000000000011" width="119" height="20" as="geometry" />
        </mxCell>
        <mxCell id="GEBhnr7vl-1R8G4FgWjN-220" value="3 days" style="strokeColor=#DEEDFF" vertex="1" parent="1">
          <mxGeometry x="-119.4999999999983" y="650.0000000000015" width="119" height="20" as="geometry" />
        </mxCell>
        <mxCell id="GEBhnr7vl-1R8G4FgWjN-221" value="Request Number" style="fillColor=#23445D;strokeColor=#FFFFFF;strokeWidth=2;fontColor=#FFFFFF;fontStyle=1" vertex="1" parent="1">
          <mxGeometry x="-119.5" y="390" width="120" height="40" as="geometry" />
        </mxCell>
        <mxCell id="GEBhnr7vl-1R8G4FgWjN-222" value="35 days" style="strokeColor=#DEEDFF;fillColor=#ADC3D9" vertex="1" parent="1">
          <mxGeometry x="0.5000000000017621" y="430" width="119" height="20" as="geometry" />
        </mxCell>
        <mxCell id="GEBhnr7vl-1R8G4FgWjN-223" value="35 days" style="strokeColor=#DEEDFF;fillColor=#CCE5FF" vertex="1" parent="1">
          <mxGeometry x="0.5000000000019895" y="449.9999999999998" width="119" height="20" as="geometry" />
        </mxCell>
        <mxCell id="GEBhnr7vl-1R8G4FgWjN-224" value="1 day" style="strokeColor=#DEEDFF" vertex="1" parent="1">
          <mxGeometry x="0.5000000000019895" y="469.9999999999998" width="119" height="20" as="geometry" />
        </mxCell>
        <mxCell id="GEBhnr7vl-1R8G4FgWjN-225" value="2 days" style="strokeColor=#DEEDFF" vertex="1" parent="1">
          <mxGeometry x="0.5000000000017053" y="490.0000000000001" width="119" height="20" as="geometry" />
        </mxCell>
        <mxCell id="GEBhnr7vl-1R8G4FgWjN-226" value="1 day" style="strokeColor=#DEEDFF" vertex="1" parent="1">
          <mxGeometry x="0.5000000000016485" y="510.0000000000001" width="119" height="20" as="geometry" />
        </mxCell>
        <mxCell id="GEBhnr7vl-1R8G4FgWjN-227" value="3 days" style="strokeColor=#DEEDFF" vertex="1" parent="1">
          <mxGeometry x="0.5000000000016485" y="530.0000000000003" width="119" height="20" as="geometry" />
        </mxCell>
        <mxCell id="GEBhnr7vl-1R8G4FgWjN-228" value="27 days" style="strokeColor=#DEEDFF" vertex="1" parent="1">
          <mxGeometry x="0.5000000000023874" y="550.0000000000007" width="119" height="20" as="geometry" />
        </mxCell>
        <mxCell id="GEBhnr7vl-1R8G4FgWjN-229" value="1 day" style="strokeColor=#DEEDFF" vertex="1" parent="1">
          <mxGeometry x="0.5000000000023874" y="570.0000000000006" width="119" height="20" as="geometry" />
        </mxCell>
        <mxCell id="GEBhnr7vl-1R8G4FgWjN-230" value="20 days" style="strokeColor=#DEEDFF;fillColor=#CCE5FF" vertex="1" parent="1">
          <mxGeometry x="0.5000000000021032" y="590.0000000000009" width="119" height="20" as="geometry" />
        </mxCell>
        <mxCell id="GEBhnr7vl-1R8G4FgWjN-231" value="2 days" style="strokeColor=#DEEDFF" vertex="1" parent="1">
          <mxGeometry x="0.5000000000020464" y="610.0000000000009" width="119" height="20" as="geometry" />
        </mxCell>
        <mxCell id="GEBhnr7vl-1R8G4FgWjN-232" value="2 days" style="strokeColor=#DEEDFF" vertex="1" parent="1">
          <mxGeometry x="0.5000000000020464" y="630.0000000000011" width="119" height="20" as="geometry" />
        </mxCell>
        <mxCell id="GEBhnr7vl-1R8G4FgWjN-233" value="3 days" style="strokeColor=#DEEDFF" vertex="1" parent="1">
          <mxGeometry x="0.5000000000017053" y="650.0000000000015" width="119" height="20" as="geometry" />
        </mxCell>
        <mxCell id="GEBhnr7vl-1R8G4FgWjN-234" value="Request Number" style="fillColor=#23445D;strokeColor=#FFFFFF;strokeWidth=2;fontColor=#FFFFFF;fontStyle=1" vertex="1" parent="1">
          <mxGeometry x="0.5" y="390" width="120" height="40" as="geometry" />
        </mxCell>
        <mxCell id="GEBhnr7vl-1R8G4FgWjN-235" value="35 days" style="strokeColor=#DEEDFF;fillColor=#ADC3D9" vertex="1" parent="1">
          <mxGeometry x="119.50000000000176" y="430" width="1000" height="20" as="geometry" />
        </mxCell>
        <mxCell id="GEBhnr7vl-1R8G4FgWjN-236" value="35 days" style="strokeColor=#DEEDFF;fillColor=#CCE5FF" vertex="1" parent="1">
          <mxGeometry x="119.50000000000199" y="449.9999999999998" width="1000" height="20" as="geometry" />
        </mxCell>
        <mxCell id="GEBhnr7vl-1R8G4FgWjN-237" value="1 day" style="strokeColor=#DEEDFF" vertex="1" parent="1">
          <mxGeometry x="119.50000000000199" y="469.9999999999998" width="1000" height="20" as="geometry" />
        </mxCell>
        <mxCell id="GEBhnr7vl-1R8G4FgWjN-238" value="2 days" style="strokeColor=#DEEDFF" vertex="1" parent="1">
          <mxGeometry x="119.5000000000017" y="490.0000000000001" width="1000" height="20" as="geometry" />
        </mxCell>
        <mxCell id="GEBhnr7vl-1R8G4FgWjN-239" value="1 day" style="strokeColor=#DEEDFF" vertex="1" parent="1">
          <mxGeometry x="119.50000000000165" y="510.0000000000001" width="1000" height="20" as="geometry" />
        </mxCell>
        <mxCell id="GEBhnr7vl-1R8G4FgWjN-240" value="3 days" style="strokeColor=#DEEDFF" vertex="1" parent="1">
          <mxGeometry x="119.50000000000165" y="530.0000000000003" width="1000" height="20" as="geometry" />
        </mxCell>
        <mxCell id="GEBhnr7vl-1R8G4FgWjN-241" value="27 days" style="strokeColor=#DEEDFF" vertex="1" parent="1">
          <mxGeometry x="119.50000000000239" y="550.0000000000007" width="1000" height="20" as="geometry" />
        </mxCell>
        <mxCell id="GEBhnr7vl-1R8G4FgWjN-242" value="1 day" style="strokeColor=#DEEDFF" vertex="1" parent="1">
          <mxGeometry x="119.50000000000239" y="570.0000000000006" width="1000" height="20" as="geometry" />
        </mxCell>
        <mxCell id="GEBhnr7vl-1R8G4FgWjN-243" value="20 days" style="strokeColor=#DEEDFF;fillColor=#CCE5FF" vertex="1" parent="1">
          <mxGeometry x="119.5000000000021" y="590.0000000000009" width="1000" height="20" as="geometry" />
        </mxCell>
        <mxCell id="GEBhnr7vl-1R8G4FgWjN-244" value="2 days" style="strokeColor=#DEEDFF" vertex="1" parent="1">
          <mxGeometry x="119.50000000000205" y="610.0000000000009" width="1000" height="20" as="geometry" />
        </mxCell>
        <mxCell id="GEBhnr7vl-1R8G4FgWjN-245" value="2 days" style="strokeColor=#DEEDFF" vertex="1" parent="1">
          <mxGeometry x="119.50000000000205" y="630.0000000000011" width="1000" height="20" as="geometry" />
        </mxCell>
        <mxCell id="GEBhnr7vl-1R8G4FgWjN-246" value="3 days" style="strokeColor=#DEEDFF" vertex="1" parent="1">
          <mxGeometry x="119.5000000000017" y="650.0000000000015" width="1000" height="20" as="geometry" />
        </mxCell>
        <mxCell id="GEBhnr7vl-1R8G4FgWjN-247" value="Request Number" style="fillColor=#23445D;strokeColor=#FFFFFF;strokeWidth=2;fontColor=#FFFFFF;fontStyle=1" vertex="1" parent="1">
          <mxGeometry x="119.5" y="390" width="1000" height="40" as="geometry" />
        </mxCell>
        <mxCell id="GEBhnr7vl-1R8G4FgWjN-248" value="Task 3" style="align=left;strokeColor=#6c8ebf;html=1;fillColor=#dae8fc;" vertex="1" parent="1">
          <mxGeometry x="180" y="510" width="120" height="20" as="geometry" />
        </mxCell>
        <mxCell id="GEBhnr7vl-1R8G4FgWjN-249" value="" style="edgeStyle=none;orthogonalLoop=1;jettySize=auto;html=1;rounded=0;" edge="1" parent="1">
          <mxGeometry width="100" relative="1" as="geometry">
            <mxPoint x="180" y="531" as="sourcePoint" />
            <mxPoint x="180" y="491" as="targetPoint" />
            <Array as="points" />
          </mxGeometry>
        </mxCell>
        <mxCell id="GEBhnr7vl-1R8G4FgWjN-250" value="Task 3" style="align=left;strokeColor=#6c8ebf;html=1;fillColor=#dae8fc;" vertex="1" parent="1">
          <mxGeometry x="300" y="490" width="120" height="20" as="geometry" />
        </mxCell>
        <mxCell id="GEBhnr7vl-1R8G4FgWjN-290" value="Module Name" style="fillColor=#23445D;strokeColor=#FFFFFF;strokeWidth=2;fontColor=#FFFFFF;fontStyle=1" vertex="1" parent="1">
          <mxGeometry x="-400" y="940" width="200" height="40" as="geometry" />
        </mxCell>
        <mxCell id="GEBhnr7vl-1R8G4FgWjN-291" value="Version Name" style="fillColor=#23445D;strokeColor=#FFFFFF;strokeWidth=2;fontColor=#FFFFFF;fontStyle=1" vertex="1" parent="1">
          <mxGeometry x="-200" y="940" width="200" height="40" as="geometry" />
        </mxCell>
        <mxCell id="GEBhnr7vl-1R8G4FgWjN-292" value="Login" style="align=center;strokeColor=#DEEDFF" vertex="1" parent="1">
          <mxGeometry x="-400.5" y="980" width="200.5" height="140" as="geometry" />
        </mxCell>
        <mxCell id="GEBhnr7vl-1R8G4FgWjN-305" value="Basic Auth" style="align=center;strokeColor=#DEEDFF" vertex="1" parent="1">
          <mxGeometry x="-199.5" y="980" width="200" height="70" as="geometry" />
        </mxCell>
        <mxCell id="GEBhnr7vl-1R8G4FgWjN-307" value="Safe Basic Auth" style="align=center;strokeColor=#DEEDFF" vertex="1" parent="1">
          <mxGeometry x="-199.5" y="1050" width="200" height="70" as="geometry" />
        </mxCell>
        <mxCell id="GEBhnr7vl-1R8G4FgWjN-311" value="Wire" style="align=center;strokeColor=#DEEDFF" vertex="1" parent="1">
          <mxGeometry x="-199.5" y="1120" width="200" height="70" as="geometry" />
        </mxCell>
        <mxCell id="GEBhnr7vl-1R8G4FgWjN-312" value="Shift Cipher" style="align=center;strokeColor=#DEEDFF" vertex="1" parent="1">
          <mxGeometry x="-199.5" y="1190" width="200" height="70" as="geometry" />
        </mxCell>
        <mxCell id="GEBhnr7vl-1R8G4FgWjN-313" value="Cryptography" style="align=center;strokeColor=#DEEDFF" vertex="1" parent="1">
          <mxGeometry x="-400.5" y="1120" width="200.5" height="280" as="geometry" />
        </mxCell>
        <mxCell id="GEBhnr7vl-1R8G4FgWjN-314" value="Finance" style="align=center;strokeColor=#DEEDFF" vertex="1" parent="1">
          <mxGeometry x="-400.5" y="1400" width="200.5" height="140" as="geometry" />
        </mxCell>
        <mxCell id="GEBhnr7vl-1R8G4FgWjN-315" value="Triple DES" style="align=center;strokeColor=#DEEDFF" vertex="1" parent="1">
          <mxGeometry x="-199.5" y="1260" width="200" height="70" as="geometry" />
        </mxCell>
        <mxCell id="GEBhnr7vl-1R8G4FgWjN-316" value="RSA" style="align=center;strokeColor=#DEEDFF" vertex="1" parent="1">
          <mxGeometry x="-199.5" y="1330" width="200" height="70" as="geometry" />
        </mxCell>
        <mxCell id="GEBhnr7vl-1R8G4FgWjN-317" value="Numpy Optimized" style="align=center;strokeColor=#DEEDFF" vertex="1" parent="1">
          <mxGeometry x="-199.5" y="1400" width="200" height="70" as="geometry" />
        </mxCell>
        <mxCell id="GEBhnr7vl-1R8G4FgWjN-318" value="Numba JIT Optimized" style="align=center;strokeColor=#DEEDFF" vertex="1" parent="1">
          <mxGeometry x="-199.5" y="1470" width="200" height="70" as="geometry" />
        </mxCell>
        <mxCell id="GEBhnr7vl-1R8G4FgWjN-319" value="Numpy Optimized" style="align=center;strokeColor=#DEEDFF" vertex="1" parent="1">
          <mxGeometry x="-199.5" y="1540" width="200" height="70" as="geometry" />
        </mxCell>
        <mxCell id="GEBhnr7vl-1R8G4FgWjN-320" value="Numba NJIT Array Optimized" style="align=center;strokeColor=#DEEDFF" vertex="1" parent="1">
          <mxGeometry x="-199.5" y="1610" width="200" height="70" as="geometry" />
        </mxCell>
        <mxCell id="GEBhnr7vl-1R8G4FgWjN-321" value="Physics" style="align=center;strokeColor=#DEEDFF" vertex="1" parent="1">
          <mxGeometry x="-400.5" y="1540" width="200.5" height="280" as="geometry" />
        </mxCell>
        <mxCell id="GEBhnr7vl-1R8G4FgWjN-322" value="Numba NJIT Scalar Optimized" style="align=center;strokeColor=#DEEDFF" vertex="1" parent="1">
          <mxGeometry x="-199.5" y="1680" width="200" height="70" as="geometry" />
        </mxCell>
        <mxCell id="GEBhnr7vl-1R8G4FgWjN-323" value="Numba NJIT Scalar Prange Optimized" style="align=center;strokeColor=#DEEDFF;textShadow=0;labelBorderColor=none;labelBackgroundColor=none;whiteSpace=wrap;" vertex="1" parent="1">
          <mxGeometry x="-199.5" y="1750" width="200" height="70" as="geometry" />
        </mxCell>
        <mxCell id="GEBhnr7vl-1R8G4FgWjN-326" value="" style="align=center;strokeColor=#DEEDFF" vertex="1" parent="1">
          <mxGeometry x="-0.5" y="980" width="1090.5" height="840" as="geometry" />
        </mxCell>
        <mxCell id="GEBhnr7vl-1R8G4FgWjN-327" value="" style="edgeStyle=none;orthogonalLoop=1;jettySize=auto;html=1;rounded=0;endArrow=none;endFill=0;dashed=1;dashPattern=8 8;" edge="1" parent="1">
          <mxGeometry width="100" relative="1" as="geometry">
            <mxPoint x="343.57" y="1840" as="sourcePoint" />
            <mxPoint x="343.57" y="990" as="targetPoint" />
            <Array as="points" />
          </mxGeometry>
        </mxCell>
        <mxCell id="GEBhnr7vl-1R8G4FgWjN-328" value="" style="edgeStyle=none;orthogonalLoop=1;jettySize=auto;html=1;rounded=0;" edge="1" parent="1">
          <mxGeometry width="100" relative="1" as="geometry">
            <mxPoint x="23.57" y="1040" as="sourcePoint" />
            <mxPoint x="1065.9229411764702" y="1040" as="targetPoint" />
            <Array as="points" />
          </mxGeometry>
        </mxCell>
        <mxCell id="GEBhnr7vl-1R8G4FgWjN-329" value="" style="align=left;strokeColor=#6c8ebf;html=1;fillColor=#dae8fc;shadow=1;" vertex="1" parent="1">
          <mxGeometry x="23.57" y="1016" width="120" height="20" as="geometry" />
        </mxCell>
        <mxCell id="GEBhnr7vl-1R8G4FgWjN-330" value="" style="edgeStyle=none;orthogonalLoop=1;jettySize=auto;html=1;rounded=0;" edge="1" parent="1">
          <mxGeometry width="100" relative="1" as="geometry">
            <mxPoint x="23.57" y="1040" as="sourcePoint" />
            <mxPoint x="23.57" y="990" as="targetPoint" />
            <Array as="points" />
          </mxGeometry>
        </mxCell>
        <mxCell id="GEBhnr7vl-1R8G4FgWjN-331" value="" style="edgeStyle=none;orthogonalLoop=1;jettySize=auto;html=1;rounded=0;" edge="1" parent="1">
          <mxGeometry width="100" relative="1" as="geometry">
            <mxPoint x="23.57" y="1110" as="sourcePoint" />
            <mxPoint x="1065.9229411764702" y="1110" as="targetPoint" />
            <Array as="points" />
          </mxGeometry>
        </mxCell>
        <mxCell id="GEBhnr7vl-1R8G4FgWjN-332" value="" style="align=left;strokeColor=#6c8ebf;html=1;fillColor=#dae8fc;shadow=1;" vertex="1" parent="1">
          <mxGeometry x="143.57" y="1086" width="80" height="20" as="geometry" />
        </mxCell>
        <mxCell id="GEBhnr7vl-1R8G4FgWjN-333" value="" style="edgeStyle=none;orthogonalLoop=1;jettySize=auto;html=1;rounded=0;" edge="1" parent="1">
          <mxGeometry width="100" relative="1" as="geometry">
            <mxPoint x="23.57" y="1110" as="sourcePoint" />
            <mxPoint x="23.57" y="1060" as="targetPoint" />
            <Array as="points" />
          </mxGeometry>
        </mxCell>
        <mxCell id="GEBhnr7vl-1R8G4FgWjN-334" value="" style="edgeStyle=none;orthogonalLoop=1;jettySize=auto;html=1;rounded=0;" edge="1" parent="1">
          <mxGeometry width="100" relative="1" as="geometry">
            <mxPoint x="23.57" y="1180" as="sourcePoint" />
            <mxPoint x="1065.9229411764702" y="1180" as="targetPoint" />
            <Array as="points" />
          </mxGeometry>
        </mxCell>
        <mxCell id="GEBhnr7vl-1R8G4FgWjN-335" value="" style="align=left;strokeColor=#6c8ebf;html=1;fillColor=#dae8fc;shadow=1;" vertex="1" parent="1">
          <mxGeometry x="223.57" y="1150" width="120" height="20" as="geometry" />
        </mxCell>
        <mxCell id="GEBhnr7vl-1R8G4FgWjN-336" value="" style="edgeStyle=none;orthogonalLoop=1;jettySize=auto;html=1;rounded=0;" edge="1" parent="1">
          <mxGeometry width="100" relative="1" as="geometry">
            <mxPoint x="23.57" y="1180" as="sourcePoint" />
            <mxPoint x="23.57" y="1130" as="targetPoint" />
            <Array as="points" />
          </mxGeometry>
        </mxCell>
        <mxCell id="GEBhnr7vl-1R8G4FgWjN-337" value="" style="edgeStyle=none;orthogonalLoop=1;jettySize=auto;html=1;rounded=0;" edge="1" parent="1">
          <mxGeometry width="100" relative="1" as="geometry">
            <mxPoint x="23.57" y="1250" as="sourcePoint" />
            <mxPoint x="1065.9229411764702" y="1250" as="targetPoint" />
            <Array as="points" />
          </mxGeometry>
        </mxCell>
        <mxCell id="GEBhnr7vl-1R8G4FgWjN-338" value="" style="edgeStyle=none;orthogonalLoop=1;jettySize=auto;html=1;rounded=0;" edge="1" parent="1">
          <mxGeometry width="100" relative="1" as="geometry">
            <mxPoint x="23.57" y="1320" as="sourcePoint" />
            <mxPoint x="1065.9229411764702" y="1320" as="targetPoint" />
            <Array as="points" />
          </mxGeometry>
        </mxCell>
        <mxCell id="GEBhnr7vl-1R8G4FgWjN-339" value="" style="align=left;strokeColor=#6c8ebf;html=1;fillColor=#dae8fc;shadow=1;" vertex="1" parent="1">
          <mxGeometry x="583.57" y="1296" width="120" height="20" as="geometry" />
        </mxCell>
        <mxCell id="GEBhnr7vl-1R8G4FgWjN-340" value="" style="edgeStyle=none;orthogonalLoop=1;jettySize=auto;html=1;rounded=0;" edge="1" parent="1">
          <mxGeometry width="100" relative="1" as="geometry">
            <mxPoint x="23.57" y="1320" as="sourcePoint" />
            <mxPoint x="23.57" y="1270" as="targetPoint" />
            <Array as="points" />
          </mxGeometry>
        </mxCell>
        <mxCell id="GEBhnr7vl-1R8G4FgWjN-341" value="" style="edgeStyle=none;orthogonalLoop=1;jettySize=auto;html=1;rounded=0;" edge="1" parent="1">
          <mxGeometry width="100" relative="1" as="geometry">
            <mxPoint x="23.57" y="1390" as="sourcePoint" />
            <mxPoint x="1065.9229411764702" y="1390" as="targetPoint" />
            <Array as="points" />
          </mxGeometry>
        </mxCell>
        <mxCell id="GEBhnr7vl-1R8G4FgWjN-342" value="" style="align=left;strokeColor=#6c8ebf;html=1;fillColor=#dae8fc;shadow=1;" vertex="1" parent="1">
          <mxGeometry x="463.57" y="1366" width="120" height="20" as="geometry" />
        </mxCell>
        <mxCell id="GEBhnr7vl-1R8G4FgWjN-343" value="" style="edgeStyle=none;orthogonalLoop=1;jettySize=auto;html=1;rounded=0;" edge="1" parent="1">
          <mxGeometry width="100" relative="1" as="geometry">
            <mxPoint x="23.57" y="1390" as="sourcePoint" />
            <mxPoint x="23.57" y="1340" as="targetPoint" />
            <Array as="points" />
          </mxGeometry>
        </mxCell>
        <mxCell id="GEBhnr7vl-1R8G4FgWjN-344" value="" style="edgeStyle=none;orthogonalLoop=1;jettySize=auto;html=1;rounded=0;" edge="1" parent="1">
          <mxGeometry width="100" relative="1" as="geometry">
            <mxPoint x="23.57" y="1460" as="sourcePoint" />
            <mxPoint x="1065.9229411764702" y="1460" as="targetPoint" />
            <Array as="points" />
          </mxGeometry>
        </mxCell>
        <mxCell id="GEBhnr7vl-1R8G4FgWjN-345" value="" style="edgeStyle=none;orthogonalLoop=1;jettySize=auto;html=1;rounded=0;" edge="1" parent="1">
          <mxGeometry width="100" relative="1" as="geometry">
            <mxPoint x="23.57" y="1530" as="sourcePoint" />
            <mxPoint x="1065.9229411764702" y="1530" as="targetPoint" />
            <Array as="points" />
          </mxGeometry>
        </mxCell>
        <mxCell id="GEBhnr7vl-1R8G4FgWjN-346" value="" style="edgeStyle=none;orthogonalLoop=1;jettySize=auto;html=1;rounded=0;" edge="1" parent="1">
          <mxGeometry width="100" relative="1" as="geometry">
            <mxPoint x="23.57" y="1600" as="sourcePoint" />
            <mxPoint x="1065.9229411764702" y="1600" as="targetPoint" />
            <Array as="points" />
          </mxGeometry>
        </mxCell>
        <mxCell id="GEBhnr7vl-1R8G4FgWjN-347" value="" style="align=left;strokeColor=#6c8ebf;html=1;fillColor=#dae8fc;shadow=1;" vertex="1" parent="1">
          <mxGeometry x="343.57" y="1296" width="120" height="20" as="geometry" />
        </mxCell>
        <mxCell id="GEBhnr7vl-1R8G4FgWjN-349" value="" style="edgeStyle=none;orthogonalLoop=1;jettySize=auto;html=1;rounded=0;" edge="1" parent="1">
          <mxGeometry width="100" relative="1" as="geometry">
            <mxPoint x="23.57" y="1670" as="sourcePoint" />
            <mxPoint x="1065.9229411764702" y="1670" as="targetPoint" />
            <Array as="points" />
          </mxGeometry>
        </mxCell>
        <mxCell id="GEBhnr7vl-1R8G4FgWjN-350" value="" style="align=left;strokeColor=#6c8ebf;html=1;fillColor=#dae8fc;shadow=1;" vertex="1" parent="1">
          <mxGeometry x="703.57" y="1510" width="56.43" height="20" as="geometry" />
        </mxCell>
        <mxCell id="GEBhnr7vl-1R8G4FgWjN-352" value="" style="edgeStyle=none;orthogonalLoop=1;jettySize=auto;html=1;rounded=0;" edge="1" parent="1">
          <mxGeometry width="100" relative="1" as="geometry">
            <mxPoint x="23.57" y="1740" as="sourcePoint" />
            <mxPoint x="1065.9229411764702" y="1740" as="targetPoint" />
            <Array as="points" />
          </mxGeometry>
        </mxCell>
        <mxCell id="GEBhnr7vl-1R8G4FgWjN-353" value="" style="edgeStyle=none;orthogonalLoop=1;jettySize=auto;html=1;rounded=0;" edge="1" parent="1">
          <mxGeometry width="100" relative="1" as="geometry">
            <mxPoint x="23.57" y="1810" as="sourcePoint" />
            <mxPoint x="1065.9229411764702" y="1810" as="targetPoint" />
            <Array as="points" />
          </mxGeometry>
        </mxCell>
        <mxCell id="GEBhnr7vl-1R8G4FgWjN-354" value="" style="align=left;strokeColor=#6c8ebf;html=1;fillColor=#dae8fc;shadow=1;" vertex="1" parent="1">
          <mxGeometry x="760" y="1786" width="120" height="20" as="geometry" />
        </mxCell>
        <mxCell id="GEBhnr7vl-1R8G4FgWjN-355" value="" style="edgeStyle=none;orthogonalLoop=1;jettySize=auto;html=1;rounded=0;" edge="1" parent="1">
          <mxGeometry width="100" relative="1" as="geometry">
            <mxPoint x="23.57" y="1810" as="sourcePoint" />
            <mxPoint x="23.57" y="1760" as="targetPoint" />
            <Array as="points" />
          </mxGeometry>
        </mxCell>
        <mxCell id="GEBhnr7vl-1R8G4FgWjN-356" value="" style="edgeStyle=none;orthogonalLoop=1;jettySize=auto;html=1;rounded=0;endArrow=none;endFill=0;dashed=1;dashPattern=8 8;" edge="1" parent="1">
          <mxGeometry width="100" relative="1" as="geometry">
            <mxPoint x="663.57" y="1840" as="sourcePoint" />
            <mxPoint x="663.57" y="990" as="targetPoint" />
            <Array as="points" />
          </mxGeometry>
        </mxCell>
        <mxCell id="GEBhnr7vl-1R8G4FgWjN-357" value="" style="edgeStyle=none;orthogonalLoop=1;jettySize=auto;html=1;rounded=0;endArrow=none;endFill=0;dashed=1;dashPattern=8 8;" edge="1" parent="1">
          <mxGeometry width="100" relative="1" as="geometry">
            <mxPoint x="983.07" y="1840" as="sourcePoint" />
            <mxPoint x="983.07" y="990" as="targetPoint" />
            <Array as="points" />
          </mxGeometry>
        </mxCell>
        <mxCell id="GEBhnr7vl-1R8G4FgWjN-362" value="Updates Schedule Chart" style="fillColor=#23445D;strokeColor=#FFFFFF;strokeWidth=2;fontColor=#FFFFFF;fontStyle=1" vertex="1" parent="1">
          <mxGeometry x="0.5" y="940" width="1089.5" height="40" as="geometry" />
        </mxCell>
        <mxCell id="GEBhnr7vl-1R8G4FgWjN-364" value="8" style="text;html=1;align=center;verticalAlign=middle;resizable=0;points=[];autosize=1;strokeColor=none;fillColor=none;" vertex="1" parent="1">
          <mxGeometry x="328" y="1840" width="30" height="30" as="geometry" />
        </mxCell>
        <mxCell id="GEBhnr7vl-1R8G4FgWjN-365" value="16" style="text;html=1;align=center;verticalAlign=middle;resizable=0;points=[];autosize=1;strokeColor=none;fillColor=none;" vertex="1" parent="1">
          <mxGeometry x="643" y="1840" width="40" height="30" as="geometry" />
        </mxCell>
        <mxCell id="GEBhnr7vl-1R8G4FgWjN-366" value="24" style="text;html=1;align=center;verticalAlign=middle;resizable=0;points=[];autosize=1;strokeColor=none;fillColor=none;" vertex="1" parent="1">
          <mxGeometry x="963" y="1840" width="40" height="30" as="geometry" />
        </mxCell>
        <mxCell id="GEBhnr7vl-1R8G4FgWjN-367" value="" style="edgeStyle=none;orthogonalLoop=1;jettySize=auto;html=1;rounded=0;" edge="1" parent="1">
          <mxGeometry width="100" relative="1" as="geometry">
            <mxPoint x="342.68" y="1320" as="sourcePoint" />
            <mxPoint x="342.68" y="1270" as="targetPoint" />
            <Array as="points" />
          </mxGeometry>
        </mxCell>
        <mxCell id="GEBhnr7vl-1R8G4FgWjN-368" value="" style="edgeStyle=none;orthogonalLoop=1;jettySize=auto;html=1;rounded=0;" edge="1" parent="1">
          <mxGeometry width="100" relative="1" as="geometry">
            <mxPoint x="343.57" y="1600" as="sourcePoint" />
            <mxPoint x="343.57" y="1550" as="targetPoint" />
            <Array as="points" />
          </mxGeometry>
        </mxCell>
        <mxCell id="GEBhnr7vl-1R8G4FgWjN-369" value="" style="edgeStyle=none;orthogonalLoop=1;jettySize=auto;html=1;rounded=0;" edge="1" parent="1">
          <mxGeometry width="100" relative="1" as="geometry">
            <mxPoint x="662.78" y="1530" as="sourcePoint" />
            <mxPoint x="662.78" y="1480" as="targetPoint" />
            <Array as="points" />
          </mxGeometry>
        </mxCell>
        <mxCell id="GEBhnr7vl-1R8G4FgWjN-370" value="" style="align=left;strokeColor=#6c8ebf;html=1;fillColor=#dae8fc;shadow=1;" vertex="1" parent="1">
          <mxGeometry x="880" y="1580" width="70" height="20" as="geometry" />
        </mxCell>
      </root>
    </mxGraphModel>
  </diagram>
</mxfile>
